<?xml version="1.0" standalone="no"?>
<!DOCTYPE svg PUBLIC "-//W3C//DTD SVG 20010904//EN"
 "http://www.w3.org/TR/2001/REC-SVG-20010904/DTD/svg10.dtd">
<svg version="1.0" xmlns="http://www.w3.org/2000/svg"
 width="224.000000pt" height="224.000000pt" viewBox="0 0 224.000000 224.000000"
 preserveAspectRatio="xMidYMid meet">
<metadata>
Created by potrace 1.11, written by Peter Selinger 2001-2013
</metadata>
<g transform="translate(0.000000,224.000000) scale(0.100000,-0.100000)"
fill="#000000" stroke="none">
<path d="M2195 2233 c-16 -2 -89 -15 -162 -28 -155 -30 -283 -70 -400 -127
l-84 -41 133 -136 c260 -266 345 -351 351 -351 11 0 73 131 106 223 42 119 67
220 85 348 19 124 18 119 9 118 -5 -1 -21 -4 -38 -6z"/>
<path d="M394 1510 c-76 -77 -140 -142 -142 -144 -1 -1 55 -13 125 -25 71 -12
178 -30 238 -40 l110 -20 142 142 c78 77 140 143 138 145 -7 7 -428 81 -466
82 -3 0 -68 -63 -145 -140z"/>
<path d="M593 1123 c-52 -89 -41 -214 29 -326 30 -46 30 -48 13 -74 -14 -21
-104 -146 -142 -199 -4 -5 -12 -17 -18 -26 -5 -9 -21 -30 -34 -48 -32 -43 -22
-37 158 92 l145 104 79 -40 c101 -52 194 -61 275 -26 89 38 89 38 -31 158 -59
59 -107 113 -107 120 0 10 126 193 190 275 29 37 20 44 -16 14 -16 -13 -85
-63 -153 -111 l-123 -89 -112 112 c-61 61 -114 111 -118 111 -4 0 -20 -21 -35
-47z"/>
<path d="M1418 867 l-138 -140 25 -146 c13 -80 31 -186 39 -235 9 -49 16 -93
16 -98 0 -17 280 265 286 287 3 12 -7 91 -21 176 -15 85 -32 187 -38 227 -6
39 -16 71 -21 71 -6 -1 -73 -65 -148 -142z"/>
</g>
</svg>
